<svg width="260" height="140" viewBox="0 0 260 140" fill="none" xmlns="http://www.w3.org/2000/svg">
<g filter="url(#filter0_dd_401_1831)">
<rect x="40" y="20" width="180" height="60" rx="7" fill="white"/>
<path d="M162.289 48.8014V52.2379H160.135V54.4916H162.289V62.1491C162.289 64.7638 163.472 65.8097 166.448 65.8097C166.97 65.8097 167.469 65.7474 167.904 65.6727V63.444C167.531 63.4813 167.294 63.5062 166.883 63.5062C165.551 63.5062 164.966 62.8837 164.966 61.4642V54.4916H167.904V52.2379H164.966V48.8014H162.289Z" fill="#212121"/>
<path d="M175.485 65.9965C179.445 65.9965 181.873 63.3444 181.873 58.9491C181.873 54.5787 179.432 51.9142 175.485 51.9142C171.526 51.9142 169.085 54.5787 169.085 58.9491C169.085 63.3444 171.513 65.9965 175.485 65.9965ZM175.485 63.6183C173.157 63.6183 171.849 61.9125 171.849 58.9491C171.849 56.0106 173.157 54.2924 175.485 54.2924C177.801 54.2924 179.121 56.0106 179.121 58.9491C179.121 61.9 177.801 63.6183 175.485 63.6183Z" fill="#212121"/>
<path d="M183.95 65.735H186.627V57.7289C186.627 55.8239 188.059 54.5414 190.088 54.5414C190.561 54.5414 191.358 54.6285 191.582 54.7033V52.0636C191.296 51.9889 190.786 51.9515 190.387 51.9515C188.619 51.9515 187.112 52.9227 186.727 54.255H186.527V52.1757H183.95V65.735Z" fill="#212121"/>
<path d="M198.229 54.1928C200.209 54.1928 201.504 55.5748 201.566 57.704H194.718C194.868 55.5873 196.25 54.1928 198.229 54.1928ZM201.554 62.0743C201.056 63.1327 199.948 63.7179 198.329 63.7179C196.187 63.7179 194.805 62.2113 194.718 59.8331V59.6837H204.293V58.7499C204.293 54.4916 202.015 51.9142 198.242 51.9142C194.419 51.9142 191.991 54.6659 191.991 58.9989C191.991 63.3319 194.37 65.9965 198.254 65.9965C201.355 65.9965 203.521 64.5023 204.131 62.0743H201.554Z" fill="#212121"/>
<path d="M144.733 60.7277C144.94 64.0573 147.715 66.1867 151.844 66.1867C156.258 66.1867 159.02 63.9541 159.02 60.3922C159.02 57.5918 157.445 56.0431 153.625 55.1527L151.573 54.6494C149.147 54.0815 148.166 53.3201 148.166 51.9909C148.166 50.3132 149.689 49.2162 151.973 49.2162C154.141 49.2162 155.638 50.2874 155.909 52.0038H158.723C158.555 48.8678 155.793 46.661 152.012 46.661C147.947 46.661 145.237 48.8678 145.237 52.1845C145.237 54.9204 146.772 56.5464 150.141 57.3337L152.541 57.9144C155.006 58.4951 156.09 59.3469 156.09 60.7665C156.09 62.4183 154.387 63.6185 152.064 63.6185C149.573 63.6185 147.844 62.4958 147.598 60.7277H144.733Z" fill="#212121"/>
<path d="M117.002 51.9515C115.16 51.9515 113.566 52.8729 112.744 54.4169H112.545V52.1757H109.968V70.2423H112.645V63.6805H112.856C113.566 65.1124 115.097 65.9591 117.027 65.9591C120.451 65.9591 122.63 63.2572 122.63 58.9491C122.63 54.641 120.451 51.9515 117.002 51.9515ZM116.243 63.556C114.002 63.556 112.595 61.788 112.595 58.9616C112.595 56.1227 114.002 54.3546 116.255 54.3546C118.522 54.3546 119.879 56.0853 119.879 58.9491C119.879 61.8253 118.522 63.556 116.243 63.556Z" fill="#212121"/>
<path d="M131.998 51.9515C130.155 51.9515 128.561 52.8729 127.739 54.4169H127.54V52.1757H124.963V70.2423H127.64V63.6805H127.851C128.561 65.1124 130.093 65.9591 132.023 65.9591C135.447 65.9591 137.626 63.2572 137.626 58.9491C137.626 54.641 135.447 51.9515 131.998 51.9515ZM131.238 63.556C128.997 63.556 127.59 61.788 127.59 58.9616C127.59 56.1227 128.997 54.3546 131.251 54.3546C133.517 54.3546 134.874 56.0853 134.874 58.9491C134.874 61.8253 133.517 63.556 131.238 63.556Z" fill="#212121"/>
<path d="M105.165 65.735H108.236L101.512 47.1127H98.4022L91.6785 65.735H94.6467L96.3631 60.7923H103.461L105.165 65.735ZM99.8089 50.4939H100.028L102.725 58.3661H97.0987L99.8089 50.4939Z" fill="#212121"/>
<path d="M93.4767 33.0664V42.0499H96.7202C99.3972 42.0499 100.947 40.4001 100.947 37.5302C100.947 34.7037 99.3848 33.0664 96.7202 33.0664H93.4767ZM94.8712 34.3364H96.5646C98.426 34.3364 99.528 35.5193 99.528 37.5488C99.528 39.6095 98.4447 40.7799 96.5646 40.7799H94.8712V34.3364Z" fill="#616161"/>
<path d="M105.695 42.1807C107.675 42.1807 108.889 40.8546 108.889 38.657C108.889 36.4718 107.669 35.1395 105.695 35.1395C103.715 35.1395 102.495 36.4718 102.495 38.657C102.495 40.8546 103.709 42.1807 105.695 42.1807ZM105.695 40.9916C104.531 40.9916 103.877 40.1387 103.877 38.657C103.877 37.1877 104.531 36.3286 105.695 36.3286C106.853 36.3286 107.513 37.1877 107.513 38.657C107.513 40.1324 106.853 40.9916 105.695 40.9916Z" fill="#616161"/>
<path d="M119.227 35.2703H117.888L116.681 40.4437H116.575L115.18 35.2703H113.898L112.503 40.4437H112.404L111.19 35.2703H109.833L111.7 42.0499H113.076L114.471 37.057H114.576L115.977 42.0499H117.366L119.227 35.2703Z" fill="#616161"/>
<path d="M120.768 42.0499H122.107V38.0842C122.107 37.0259 122.736 36.366 123.726 36.366C124.715 36.366 125.189 36.9076 125.189 37.9971V42.0499H126.527V37.6609C126.527 36.0485 125.693 35.1395 124.18 35.1395C123.159 35.1395 122.487 35.594 122.157 36.3473H122.057V35.2703H120.768V42.0499Z" fill="#616161"/>
<path d="M128.635 42.0499H129.974V32.6244H128.635V42.0499Z" fill="#616161"/>
<path d="M135.008 42.1807C136.987 42.1807 138.201 40.8546 138.201 38.657C138.201 36.4718 136.981 35.1395 135.008 35.1395C133.028 35.1395 131.808 36.4718 131.808 38.657C131.808 40.8546 133.022 42.1807 135.008 42.1807ZM135.008 40.9916C133.843 40.9916 133.19 40.1387 133.19 38.657C133.19 37.1877 133.843 36.3286 135.008 36.3286C136.166 36.3286 136.825 37.1877 136.825 38.657C136.825 40.1324 136.166 40.9916 135.008 40.9916Z" fill="#616161"/>
<path d="M142.189 41.0352C141.461 41.0352 140.932 40.6803 140.932 40.0702C140.932 39.4725 141.355 39.155 142.289 39.0928L143.945 38.9869V39.5535C143.945 40.3939 143.198 41.0352 142.189 41.0352ZM141.847 42.162C142.737 42.162 143.478 41.776 143.883 41.0974H143.989V42.0499H145.277V37.4181C145.277 35.9862 144.319 35.1395 142.619 35.1395C141.081 35.1395 139.986 35.8866 139.849 37.0508H141.144C141.293 36.5714 141.81 36.2975 142.557 36.2975C143.472 36.2975 143.945 36.7021 143.945 37.4181V38.0033L142.108 38.1091C140.496 38.2087 139.587 38.9122 139.587 40.1324C139.587 41.3713 140.54 42.162 141.847 42.162Z" fill="#616161"/>
<path d="M149.819 42.162C150.753 42.162 151.544 41.72 151.949 40.9791H152.054V42.0499H153.337V32.6244H151.998V36.3473H151.899C151.532 35.6002 150.747 35.1582 149.819 35.1582C148.107 35.1582 147.006 36.5154 147.006 38.657C147.006 40.8048 148.095 42.162 149.819 42.162ZM150.199 36.3597C151.32 36.3597 152.023 37.25 152.023 38.6632C152.023 40.0826 151.326 40.9604 150.199 40.9604C149.066 40.9604 148.388 40.0951 148.388 38.657C148.388 37.2313 149.072 36.3597 150.199 36.3597Z" fill="#616161"/>
<path d="M162.017 42.1807C163.996 42.1807 165.21 40.8546 165.21 38.657C165.21 36.4718 163.99 35.1395 162.017 35.1395C160.037 35.1395 158.817 36.4718 158.817 38.657C158.817 40.8546 160.031 42.1807 162.017 42.1807ZM162.017 40.9916C160.852 40.9916 160.199 40.1387 160.199 38.657C160.199 37.1877 160.852 36.3286 162.017 36.3286C163.175 36.3286 163.835 37.1877 163.835 38.657C163.835 40.1324 163.175 40.9916 162.017 40.9916Z" fill="#616161"/>
<path d="M166.982 42.0499H168.321V38.0842C168.321 37.0259 168.949 36.366 169.939 36.366C170.929 36.366 171.402 36.9076 171.402 37.9971V42.0499H172.741V37.6609C172.741 36.0485 171.907 35.1395 170.394 35.1395C169.373 35.1395 168.7 35.594 168.37 36.3473H168.271V35.2703H166.982V42.0499Z" fill="#616161"/>
<path d="M178.905 33.5831V35.3014H177.828V36.4282H178.905V40.257C178.905 41.5643 179.497 42.0873 180.985 42.0873C181.246 42.0873 181.495 42.0562 181.713 42.0188V40.9044C181.526 40.9231 181.408 40.9355 181.203 40.9355C180.537 40.9355 180.244 40.6243 180.244 39.9146V36.4282H181.713V35.3014H180.244V33.5831H178.905Z" fill="#616161"/>
<path d="M183.51 42.0499H184.848V38.0905C184.848 37.0632 185.458 36.3722 186.554 36.3722C187.5 36.3722 188.005 36.92 188.005 38.0033V42.0499H189.343V37.6733C189.343 36.0609 188.453 35.1458 187.009 35.1458C185.988 35.1458 185.272 35.6002 184.942 36.3597H184.836V32.6244H183.51V42.0499Z" fill="#616161"/>
<path d="M194.172 36.2788C195.162 36.2788 195.809 36.9698 195.84 38.0344H192.416C192.491 36.9761 193.182 36.2788 194.172 36.2788ZM195.834 40.2196C195.585 40.7488 195.031 41.0414 194.222 41.0414C193.151 41.0414 192.46 40.2881 192.416 39.099V39.0243H197.204V38.5574C197.204 36.4282 196.064 35.1395 194.178 35.1395C192.267 35.1395 191.053 36.5154 191.053 38.6819C191.053 40.8484 192.242 42.1807 194.184 42.1807C195.734 42.1807 196.818 41.4336 197.123 40.2196H195.834Z" fill="#616161"/>
<path d="M77.1535 50.4512C77.186 47.9297 78.5401 45.5438 80.6883 44.2231C79.3331 42.2877 77.0632 41.0605 74.7016 40.9866C72.1827 40.7222 69.7408 42.4939 68.4572 42.4939C67.1488 42.4939 65.1726 41.0129 63.0445 41.0567C60.2706 41.1463 57.6847 42.7233 56.3351 45.1485C53.4341 50.1711 55.598 57.5527 58.3769 61.6126C59.7673 63.6006 61.3922 65.8213 63.5184 65.7425C65.5989 65.6562 66.376 64.4158 68.8875 64.4158C71.3756 64.4158 72.1046 65.7425 74.274 65.6925C76.5065 65.6562 77.9131 63.6956 79.2547 61.6887C80.2537 60.2722 81.0224 58.7066 81.5323 57.05C78.9087 55.9403 77.1566 53.2999 77.1535 50.4512Z" fill="#F17228"/>
<path d="M73.056 38.3166C74.2733 36.8553 74.873 34.977 74.7278 33.0807C72.868 33.276 71.1501 34.1649 69.9164 35.5701C68.71 36.9431 68.0821 38.7883 68.2008 40.6122C70.0613 40.6313 71.8902 39.7666 73.056 38.3166Z" fill="#F17228"/>
</g>
<defs>
<filter id="filter0_dd_401_1831" x="0" y="0" width="260" height="140" filterUnits="userSpaceOnUse" color-interpolation-filters="sRGB">
<feFlood flood-opacity="0" result="BackgroundImageFix"/>
<feColorMatrix in="SourceAlpha" type="matrix" values="0 0 0 0 0 0 0 0 0 0 0 0 0 0 0 0 0 0 127 0" result="hardAlpha"/>
<feOffset dy="20"/>
<feGaussianBlur stdDeviation="20"/>
<feColorMatrix type="matrix" values="0 0 0 0 1 0 0 0 0 0.680498 0 0 0 0 0 0 0 0 0.29 0"/>
<feBlend mode="normal" in2="BackgroundImageFix" result="effect1_dropShadow_401_1831"/>
<feColorMatrix in="SourceAlpha" type="matrix" values="0 0 0 0 0 0 0 0 0 0 0 0 0 0 0 0 0 0 127 0" result="hardAlpha"/>
<feOffset dy="5"/>
<feGaussianBlur stdDeviation="5"/>
<feColorMatrix type="matrix" values="0 0 0 0 1 0 0 0 0 0.680498 0 0 0 0 0 0 0 0 0.26 0"/>
<feBlend mode="normal" in2="effect1_dropShadow_401_1831" result="effect2_dropShadow_401_1831"/>
<feBlend mode="normal" in="SourceGraphic" in2="effect2_dropShadow_401_1831" result="shape"/>
</filter>
</defs>
</svg>
